<svg xmlns="http://www.w3.org/2000/svg" width="1064" height="327" viewBox="0 0 1064 327">
<g>
<path d="M 227.34 209.43 C227.87,210.81 226.10,211.00 212.47,211.00 L 197.00 211.00 L 197.00 182.00 L 228.00 182.00 L 228.00 154.00 L 257.00 154.00 L 257.00 182.00 L 228.29 182.00 L 227.25 185.25 C226.41,187.85 226.18,188.05 226.10,186.25 C226.05,185.01 225.44,183.96 224.75,183.92 C217.61,183.46 201.12,183.29 199.75,183.66 C198.20,184.08 198.00,185.57 198.00,196.42 L 198.00 208.71 L 205.65 209.35 C216.88,210.30 224.46,210.14 225.67,208.93 C226.42,208.18 226.91,208.32 227.34,209.43 ZM 242.00 180.25 C246.68,180.39 251.18,180.42 252.00,180.33 C252.82,180.23 254.06,180.12 254.75,180.08 C255.68,180.02 256.00,176.79 256.00,167.50 L 256.00 155.00 L 244.25 155.02 C237.79,155.02 231.82,155.46 231.00,155.98 C229.82,156.72 229.49,159.29 229.44,167.99 C229.44,168.89 229.43,169.72 229.42,170.49 C229.37,175.12 229.34,177.48 230.51,178.71 C231.92,180.20 235.06,180.04 242.00,180.25 ZM 507.00 86.00 L 507.00 116.00 L 482.50 116.00 C466.83,116.00 458.00,115.64 458.00,115.00 C458.00,114.36 466.50,114.00 481.50,114.00 L 505.00 114.00 L 505.00 87.00 L 441.55 87.00 C382.18,87.00 378.03,87.11 377.08,88.75 C376.17,90.31 376.06,90.26 376.03,88.25 L 376.00 86.00 ZM 291.00 124.00 L 291.00 153.00 L 264.00 153.00 L 264.00 124.00 L 267.25 124.11 L 270.50 124.21 L 265.00 126.39 L 265.00 152.00 L 289.00 152.00 L 289.00 139.02 C289.00,138.03 289.00,137.12 289.01,136.27 C289.03,130.16 289.04,127.43 287.68,126.14 C286.40,124.91 283.89,124.98 279.00,124.69 C275.24,124.47 276.27,124.31 282.25,124.18 ZM 226.00 128.00 C226.00,136.80 225.66,143.95 225.25,143.88 C224.84,143.82 223.15,143.42 221.50,143.00 L 218.50 142.24 L 221.19 142.12 L 223.88 142.00 L 224.19 130.25 C224.57,115.91 224.34,114.02 222.18,113.93 C220.82,113.87 220.88,113.69 222.50,113.00 C223.60,112.53 224.84,112.11 225.25,112.07 C225.66,112.03 226.00,119.20 226.00,128.00 ZM 242.00 61.00 C242.00,68.15 241.66,73.96 241.25,73.90 C240.84,73.85 239.38,73.44 238.00,73.00 C235.60,72.23 235.59,72.20 237.75,72.10 C240.09,72.00 240.23,70.79 240.40,50.25 C240.41,49.01 240.78,48.00 241.21,48.00 C241.64,48.00 242.00,53.85 242.00,61.00 Z" fill="rgb(5,23,45)"/>
<path d="M 606.01 236.99 C604.44,238.56 602.24,238.82 589.58,238.94 L 574.96 239.08 L 572.98 234.45 C571.89,231.90 570.72,228.73 570.39,227.41 C570.06,226.08 569.40,225.00 568.92,225.00 C568.45,225.00 568.32,224.32 568.64,223.50 C568.95,222.68 568.69,222.00 568.05,222.00 C567.41,222.00 567.13,221.59 567.44,221.09 C567.98,220.22 562.29,204.03 561.09,203.00 C560.76,202.73 560.49,202.05 560.49,201.50 C560.46,199.56 556.69,189.49 555.77,188.89 C555.25,188.55 554.90,187.98 554.99,187.62 C555.40,185.96 553.72,181.00 552.75,181.00 C552.16,181.00 551.94,180.73 552.27,180.39 C553.02,179.65 546.07,159.74 544.77,158.89 C544.25,158.55 543.87,157.99 543.91,157.64 C543.96,157.29 543.97,156.89 543.92,156.75 C543.88,156.61 543.69,155.67 543.50,154.66 C543.00,152.03 534.76,129.60 534.07,129.00 C533.76,128.73 533.50,128.05 533.50,127.50 C533.50,126.16 526.78,107.63 526.07,107.00 C525.75,106.72 525.48,106.05 525.46,105.50 C525.38,103.27 522.63,96.00 521.87,96.00 C521.43,96.00 521.32,95.32 521.64,94.50 C521.95,93.68 521.73,93.00 521.14,93.00 C520.55,93.00 520.32,92.32 520.64,91.49 C520.96,90.66 520.66,89.29 519.97,88.46 C518.85,87.12 520.57,86.98 535.10,87.22 L 551.48 87.50 L 554.20 95.90 C555.69,100.52 557.58,105.70 558.38,107.40 C559.19,109.11 560.14,111.85 560.50,113.50 C560.86,115.15 561.55,117.40 562.02,118.50 C562.50,119.60 564.72,126.12 566.96,133.00 C569.19,139.88 571.47,146.40 572.01,147.50 C573.56,150.63 577.00,161.15 577.00,162.76 C577.00,163.55 577.61,165.62 578.36,167.35 C579.12,169.08 581.64,176.35 583.97,183.50 C586.30,190.65 588.61,196.93 589.11,197.45 C590.47,198.90 592.02,196.80 592.28,193.18 C592.40,191.43 592.78,190.00 593.12,190.00 C593.65,190.00 594.86,186.22 595.51,182.50 C595.61,181.95 596.25,180.15 596.93,178.50 C597.61,176.85 598.29,174.60 598.45,173.50 C598.60,172.40 599.28,170.15 599.96,168.50 C600.64,166.85 601.26,164.49 601.35,163.25 C601.43,162.01 601.86,161.00 602.29,161.00 C602.73,161.00 603.00,160.44 602.89,159.75 C602.78,159.06 602.97,157.82 603.33,157.00 C605.34,152.29 606.91,146.67 606.43,145.89 C606.13,145.40 606.41,145.00 607.05,145.00 C607.69,145.00 607.95,144.32 607.64,143.50 C607.32,142.68 607.55,142.00 608.14,142.00 C608.73,142.00 608.98,141.38 608.69,140.62 C608.39,139.86 608.54,138.85 609.00,138.37 C610.31,137.02 624.01,92.82 623.41,91.85 C623.12,91.38 623.31,91.00 623.82,91.00 C624.34,91.00 625.00,90.12 625.28,89.05 C625.75,87.23 626.90,87.08 641.90,86.80 C655.28,86.55 658.00,86.74 658.00,87.92 C658.00,89.80 668.14,118.64 670.07,122.24 C670.58,123.19 671.00,124.66 671.00,125.50 C671.00,126.34 671.39,127.81 671.87,128.76 C672.92,130.87 674.46,135.11 677.77,145.00 C681.13,155.02 684.98,165.81 686.51,169.50 C687.19,171.15 688.47,174.75 689.35,177.50 C694.01,192.11 695.78,196.50 696.99,196.50 C698.35,196.50 702.34,184.36 701.46,182.93 C701.20,182.51 701.43,182.02 701.98,181.84 C702.52,181.65 703.14,180.15 703.35,178.50 C703.56,176.85 704.04,174.80 704.40,173.94 C706.13,169.88 708.86,159.58 708.40,158.84 C708.11,158.38 708.31,158.00 708.83,158.00 C709.63,158.00 711.22,152.90 711.48,149.50 C711.52,148.95 711.91,147.94 712.34,147.25 C712.77,146.56 712.84,145.55 712.50,145.00 C712.16,144.45 712.38,144.00 712.98,144.00 C713.59,144.00 714.00,143.44 713.88,142.75 C713.77,142.06 714.20,140.22 714.85,138.67 C715.49,137.11 715.78,135.46 715.50,135.00 C715.22,134.54 715.35,134.02 715.80,133.84 C716.90,133.39 720.08,121.93 719.41,120.85 C719.12,120.38 719.41,120.00 720.05,120.00 C720.69,120.00 720.97,119.35 720.66,118.56 C720.36,117.78 720.51,116.99 720.99,116.81 C721.47,116.64 722.00,115.15 722.18,113.50 C722.36,111.85 722.80,110.27 723.17,109.99 C723.55,109.71 724.00,108.13 724.17,106.49 C724.35,104.84 724.85,103.24 725.28,102.92 C725.70,102.61 726.15,100.92 726.28,99.18 C726.40,97.43 726.86,96.00 727.29,96.00 C727.73,96.00 728.00,95.44 727.88,94.75 C727.77,94.06 728.20,92.22 728.85,90.67 C729.49,89.11 729.71,87.34 729.34,86.75 C728.91,86.04 729.29,85.90 730.42,86.33 C731.38,86.70 738.46,87.00 746.16,87.00 L 760.16 87.00 L 759.52 90.25 C759.17,92.04 758.48,94.40 757.98,95.50 C756.38,99.04 751.09,116.33 749.93,121.83 C749.31,124.76 748.17,128.36 747.41,129.83 C746.64,131.30 746.01,133.71 746.01,135.19 C746.00,136.67 745.60,138.13 745.11,138.43 C744.63,138.73 743.45,142.02 742.49,145.74 C741.54,149.46 739.91,155.00 738.88,158.07 C737.85,161.13 737.00,164.50 736.99,165.57 C736.99,166.63 736.32,168.79 735.49,170.36 C734.67,171.94 734.00,174.21 734.00,175.41 C734.00,176.62 733.58,178.03 733.06,178.55 C732.54,179.07 730.76,184.23 729.10,190.00 C722.16,214.15 718.66,225.68 717.37,228.65 C716.62,230.38 716.00,232.68 716.00,233.75 C716.00,238.23 713.32,239.00 697.74,239.00 C681.51,239.00 681.06,238.84 678.96,232.26 C675.57,221.64 661.48,183.46 660.84,183.19 C660.44,183.01 660.36,182.22 660.66,181.44 C660.97,180.65 660.73,180.00 660.14,180.00 C659.55,180.00 659.32,179.32 659.64,178.50 C659.95,177.68 659.81,177.00 659.32,177.00 C658.83,177.00 658.35,175.99 658.26,174.76 C658.16,173.54 657.64,172.38 657.10,172.20 C656.56,172.02 656.36,171.22 656.66,170.44 C656.97,169.65 656.72,169.00 656.11,169.00 C655.50,169.00 655.09,168.66 655.19,168.25 C655.60,166.64 653.79,161.00 652.86,161.00 C652.32,161.00 652.13,160.59 652.44,160.09 C653.08,159.06 649.06,147.82 647.71,146.89 C647.23,146.55 646.87,145.99 646.91,145.64 C646.96,145.29 646.97,144.89 646.93,144.75 C646.88,144.61 646.65,143.38 646.40,142.00 C646.15,140.62 645.50,139.35 644.96,139.16 C644.43,138.98 644.24,138.43 644.54,137.94 C644.84,137.44 644.53,136.02 643.84,134.77 C643.15,133.52 642.57,131.86 642.55,131.09 C642.43,127.68 640.07,129.28 638.68,133.70 C636.06,142.00 629.95,162.21 627.85,169.50 C626.74,173.35 625.16,178.52 624.33,181.00 C623.51,183.48 622.27,187.30 621.59,189.50 C620.90,191.70 619.88,194.62 619.32,196.00 C618.76,197.38 617.51,201.65 616.55,205.50 C615.58,209.35 614.41,213.40 613.94,214.50 C611.22,220.89 610.06,224.41 609.00,229.49 C608.35,232.62 607.01,235.99 606.01,236.99 ZM 988.50 238.71 C985.20,239.46 975.30,240.24 966.50,240.45 C950.03,240.82 947.39,240.69 938.00,239.01 C934.97,238.48 930.79,237.77 928.70,237.45 C926.61,237.12 922.56,236.19 919.70,235.38 C916.84,234.56 913.42,233.62 912.09,233.30 C907.26,232.11 891.41,223.75 888.26,220.73 C885.20,217.80 885.10,217.49 886.53,215.31 C887.36,214.04 887.70,212.99 887.27,212.97 C886.85,212.95 887.30,212.48 888.27,211.91 C889.25,211.34 889.81,210.50 889.53,210.04 C889.24,209.58 889.71,208.94 890.57,208.61 C891.43,208.28 891.85,207.56 891.50,207.01 C891.16,206.45 891.26,206.00 891.73,206.00 C892.51,206.00 895.85,201.05 896.27,199.27 C896.95,196.38 902.00,193.55 902.00,196.06 C902.00,196.64 902.45,196.84 903.00,196.50 C903.55,196.16 904.00,196.28 904.00,196.76 C904.00,197.66 911.27,201.60 914.00,202.18 C914.83,202.36 915.72,202.76 916.00,203.07 C917.19,204.42 925.08,206.91 926.47,206.37 C927.31,206.05 928.00,206.23 928.00,206.76 C928.00,207.30 932.84,208.78 938.75,210.05 C952.92,213.09 974.54,213.41 983.29,210.71 C988.65,209.05 997.81,202.48 996.54,201.20 C996.25,200.92 996.52,200.08 997.14,199.33 C997.78,198.57 998.01,196.46 997.68,194.44 C996.62,187.88 987.61,181.98 975.00,179.58 C970.88,178.79 958.72,176.53 948.00,174.55 C937.28,172.57 927.60,170.57 926.50,170.11 C925.40,169.65 922.70,168.72 920.50,168.04 C915.11,166.36 905.04,161.59 902.14,159.33 C900.85,158.33 898.60,156.18 897.14,154.57 C895.69,152.96 893.75,150.86 892.83,149.91 C891.92,148.95 891.43,147.90 891.75,147.58 C892.07,147.26 891.78,147.00 891.11,147.00 C890.43,147.00 890.16,146.55 890.50,146.00 C890.84,145.45 890.72,145.00 890.23,145.00 C889.73,145.00 889.31,144.44 889.28,143.75 C889.25,143.06 888.72,139.46 888.09,135.75 C887.26,130.77 887.25,127.23 888.07,122.25 C889.55,113.28 889.40,113.84 891.01,111.00 C891.79,109.62 892.33,108.16 892.21,107.75 C892.10,107.34 892.45,107.00 893.00,107.00 C893.55,107.00 894.00,106.60 894.00,106.12 C894.00,103.71 903.71,95.76 911.00,92.21 C912.92,91.27 914.65,90.16 914.83,89.75 C915.02,89.34 916.23,89.00 917.52,89.00 C918.82,89.00 920.14,88.58 920.46,88.06 C920.78,87.55 921.82,87.15 922.77,87.18 C923.72,87.21 929.00,86.46 934.50,85.52 C945.75,83.60 960.48,83.49 975.50,85.21 C981.00,85.84 986.74,86.34 988.25,86.32 C989.76,86.30 991.00,86.67 991.00,87.14 C991.00,87.61 991.88,88.00 992.95,88.00 C994.02,88.00 998.86,89.45 1003.70,91.22 C1008.54,92.99 1012.84,94.34 1013.25,94.22 C1013.66,94.10 1014.00,94.48 1014.00,95.06 C1014.00,95.64 1014.45,95.84 1015.00,95.50 C1015.55,95.16 1016.00,95.39 1016.00,96.00 C1016.00,96.61 1016.45,96.84 1017.00,96.50 C1017.55,96.16 1018.00,96.43 1018.00,97.11 C1018.00,97.78 1018.26,98.07 1018.58,97.75 C1019.40,96.93 1023.00,100.70 1023.00,102.38 C1023.00,103.14 1022.33,104.32 1021.50,105.00 C1020.67,105.68 1020.00,106.86 1020.00,107.62 C1020.00,108.38 1019.65,109.00 1019.23,109.00 C1018.80,109.00 1017.57,110.69 1016.49,112.75 C1015.40,114.81 1014.28,116.72 1013.99,117.00 C1013.69,117.28 1012.64,118.77 1011.65,120.33 C1010.37,122.34 1009.37,122.95 1008.18,122.46 C994.26,116.65 985.52,114.23 972.00,112.45 C951.36,109.73 935.18,111.54 926.03,117.60 C921.47,120.61 920.52,123.04 921.27,129.69 C921.66,133.15 922.47,134.80 924.64,136.53 C926.21,137.78 927.84,138.60 928.25,138.35 C928.66,138.09 929.00,138.34 929.00,138.91 C929.00,139.47 929.67,139.68 930.50,139.36 C931.33,139.05 932.00,139.31 932.00,139.95 C932.00,140.59 932.50,140.81 933.11,140.43 C933.72,140.05 934.58,140.31 935.01,141.01 C935.44,141.71 937.30,142.33 939.14,142.39 C940.99,142.45 942.72,142.76 943.00,143.08 C943.85,144.07 955.16,146.02 956.22,145.36 C956.77,145.02 957.51,145.15 957.86,145.65 C958.72,146.87 980.70,151.05 982.54,150.34 C983.34,150.04 984.00,150.28 984.00,150.89 C984.00,151.50 984.86,152.00 985.92,152.00 C986.98,152.00 991.68,153.30 996.36,154.90 C1001.04,156.49 1005.13,157.54 1005.44,157.23 C1005.75,156.92 1006.00,157.12 1006.00,157.67 C1006.00,158.57 1009.28,160.55 1011.27,160.84 C1011.69,160.91 1013.26,162.09 1014.76,163.48 C1016.26,164.87 1018.01,166.00 1018.66,166.00 C1020.54,166.00 1027.31,175.63 1028.49,180.00 C1028.57,180.27 1029.16,182.30 1029.81,184.50 C1031.25,189.37 1031.30,197.93 1029.94,204.00 C1025.93,221.89 1012.38,233.23 988.50,238.71 ZM 455.07 237.96 C452.58,239.30 429.05,239.26 426.75,237.92 C425.11,236.97 425.00,232.94 425.00,175.97 L 425.00 115.04 L 400.75 114.77 L 376.50 114.50 L 375.91 109.50 C375.59,106.75 375.54,100.34 375.80,95.25 L 376.09 89.51 C376.19,90.15 376.43,89.86 377.08,88.75 C378.03,87.11 382.18,87.00 441.55,87.00 L 505.00 87.00 L 505.00 114.00 L 481.50 114.00 C466.50,114.00 458.00,114.36 458.00,115.00 C458.00,115.63 466.65,115.99 482.00,116.00 L 457.00 116.00 L 457.00 176.46 C457.00,235.22 456.95,236.96 455.07,237.96 ZM 806.01 87.00 L 805.50 238.50 L 790.94 238.78 C782.94,238.93 776.07,238.74 775.69,238.36 C775.31,237.98 775.00,203.77 775.00,162.33 L 775.00 87.00 ZM 860.75 237.75 C859.68,239.09 832.96,239.62 831.67,238.33 C831.30,237.97 831.00,203.75 831.00,162.31 L 831.00 86.95 L 861.50 87.50 L 861.62 162.00 C861.70,210.15 861.39,236.94 860.75,237.75 ZM 290.52 104.43 C284.78,106.83 273.28,106.06 268.15,102.93 C265.09,101.07 259.00,95.06 259.00,93.90 C259.00,93.40 258.52,93.00 257.94,93.00 C257.36,93.00 257.16,92.55 257.50,92.00 C257.84,91.45 257.66,91.00 257.09,91.00 C256.53,91.00 256.32,90.32 256.64,89.50 C256.95,88.68 256.83,88.00 256.36,87.99 C255.89,87.99 255.39,85.68 255.25,82.85 C255.00,77.84 256.04,72.41 258.24,67.13 C258.84,65.68 259.38,64.28 259.44,64.00 C259.63,63.09 264.72,58.00 265.44,58.00 C265.82,58.00 266.82,57.33 267.64,56.50 C268.47,55.67 270.27,55.00 271.64,55.00 C273.01,55.00 274.89,54.60 275.82,54.11 C276.82,53.57 279.92,53.62 283.50,54.22 C286.80,54.77 290.06,55.25 290.75,55.28 C291.44,55.31 292.00,55.78 292.00,56.33 C292.00,56.88 292.26,57.07 292.58,56.75 C293.77,55.57 304.00,64.80 304.00,67.04 C304.00,68.06 304.42,69.14 304.94,69.46 C306.53,70.45 307.22,78.32 306.17,83.54 C304.07,93.99 303.76,94.65 299.24,98.32 C298.00,99.33 296.38,100.76 295.64,101.50 C294.90,102.24 292.60,103.56 290.52,104.43 ZM 225.25 143.89 C224.84,143.84 218.48,142.96 211.13,141.94 C203.78,140.93 197.63,139.96 197.46,139.79 C197.29,139.62 197.04,133.41 196.91,125.99 L 196.67 112.50 L 226.00 111.95 L 226.00 127.97 C226.00,119.19 225.66,112.03 225.25,112.07 C224.84,112.11 223.60,112.53 222.50,113.00 C220.88,113.69 220.82,113.87 222.18,113.93 C224.34,114.02 224.57,115.91 224.19,130.25 L 223.88 142.00 L 221.19 142.12 L 218.50 142.24 L 221.50 143.00 C223.15,143.42 224.84,143.82 225.25,143.88 C225.41,143.91 225.57,142.78 225.69,140.87 C225.57,142.79 225.41,143.92 225.25,143.89 ZM 227.34 209.43 C226.91,208.32 226.42,208.18 225.67,208.93 C224.46,210.14 216.88,210.30 205.65,209.35 L 198.00 208.71 L 198.00 196.42 C198.00,185.57 198.20,184.08 199.75,183.66 C201.12,183.29 217.61,183.46 224.75,183.92 C225.44,183.96 226.05,185.01 226.10,186.25 C226.18,188.05 226.41,187.85 227.25,185.25 L 227.97 182.98 L 227.78 190.25 C227.66,194.79 227.69,201.31 227.84,204.75 L 228.12 211.00 L 212.56 211.00 C226.11,211.00 227.86,210.81 227.34,209.43 ZM 242.00 180.25 C235.06,180.04 231.92,180.20 230.51,178.71 C229.34,177.48 229.37,175.12 229.42,170.49 C229.43,169.72 229.44,168.89 229.44,167.99 C229.49,159.29 229.82,156.72 231.00,155.98 C231.82,155.46 237.79,155.02 244.25,155.02 L 256.00 155.00 L 256.00 167.50 C256.00,176.79 255.68,180.02 254.75,180.08 C254.06,180.12 252.82,180.23 252.00,180.33 C251.18,180.42 246.68,180.39 242.00,180.25 ZM 291.00 124.00 L 282.25 124.18 C276.27,124.31 275.24,124.47 279.00,124.69 C283.89,124.98 286.40,124.91 287.68,126.14 C289.04,127.43 289.03,130.16 289.01,136.27 C289.00,137.12 289.00,138.03 289.00,139.02 L 289.00 152.00 L 265.00 152.00 L 265.00 126.39 L 270.50 124.21 L 264.00 124.00 ZM 242.00 60.45 C242.00,60.55 242.00,60.64 242.00,60.74 C241.99,53.71 241.64,48.00 241.21,48.00 C240.78,48.00 240.41,49.01 240.40,50.25 C240.23,70.79 240.09,72.00 237.75,72.10 C235.59,72.20 235.60,72.23 238.00,73.00 C238.80,73.26 239.62,73.50 240.26,73.67 C238.25,73.32 233.52,72.50 228.25,71.60 L 216.00 69.50 L 216.00 44.31 L 222.75 45.63 C226.46,46.36 230.74,46.70 232.25,46.40 C234.02,46.04 235.00,46.27 235.00,47.03 C235.00,47.85 236.09,48.02 238.50,47.57 L 242.00 46.91 Z" fill="rgb(8,39,85)"/>
<path d="M 168.00 211.51 C168.00,265.68 167.66,309.95 167.25,309.88 C164.28,309.41 148.00,301.85 148.00,300.95 C148.00,300.51 146.43,299.64 144.50,299.00 C142.57,298.36 141.00,297.43 141.00,296.92 C141.00,296.42 140.32,296.00 139.50,296.00 C138.68,296.00 138.00,295.55 138.00,295.00 C138.00,294.45 137.32,294.00 136.50,294.00 C135.68,294.00 135.00,293.55 135.00,293.00 C135.00,292.45 134.32,292.00 133.50,292.00 C132.68,292.00 132.00,291.55 132.00,291.00 C132.00,290.45 131.32,290.00 130.50,290.00 C129.68,290.00 129.00,289.55 129.00,289.00 C129.00,288.45 128.37,288.00 127.61,288.00 C126.84,288.00 125.95,287.33 125.64,286.50 C125.32,285.67 124.37,285.00 123.53,285.00 C122.69,285.00 122.00,284.55 122.00,284.00 C122.00,283.45 121.38,283.00 120.62,283.00 C119.85,283.00 118.49,281.88 117.59,280.50 C116.69,279.12 115.47,278.00 114.87,278.00 C114.28,278.00 112.90,276.88 111.82,275.50 C110.74,274.12 109.43,273.00 108.92,273.00 C107.78,273.00 91.63,256.78 91.82,255.82 C91.89,255.45 90.50,253.91 88.73,252.41 C86.95,250.91 85.61,249.31 85.74,248.86 C85.88,248.41 84.87,247.31 83.50,246.41 C82.14,245.51 81.25,244.41 81.53,243.96 C81.80,243.51 81.13,242.50 80.02,241.73 C78.92,240.95 78.30,240.03 78.65,239.68 C79.00,239.33 78.55,238.76 77.65,238.42 C76.75,238.07 76.23,237.44 76.49,237.02 C76.75,236.60 75.89,235.10 74.59,233.69 C73.28,232.28 72.45,230.88 72.75,230.59 C73.04,230.29 72.55,229.76 71.65,229.42 C70.75,229.07 70.25,228.40 70.54,227.93 C70.83,227.46 70.19,226.19 69.12,225.12 C68.05,224.05 67.43,222.90 67.75,222.58 C68.07,222.26 67.78,222.00 67.11,222.00 C66.43,222.00 66.16,221.55 66.50,221.00 C66.84,220.45 66.61,220.00 66.00,220.00 C65.39,220.00 65.15,219.57 65.48,219.04 C65.80,218.51 65.19,217.19 64.12,216.12 C63.05,215.05 62.43,213.90 62.75,213.58 C63.07,213.26 62.78,213.00 62.11,213.00 C61.43,213.00 61.16,212.55 61.50,212.00 C61.84,211.45 61.69,211.00 61.17,211.00 C60.65,211.00 60.27,210.44 60.32,209.75 C60.47,207.89 56.92,200.00 55.92,200.00 C55.45,200.00 55.30,199.38 55.59,198.63 C55.88,197.87 55.44,196.58 54.61,195.75 C53.77,194.92 53.37,193.96 53.71,193.62 C54.05,193.28 53.82,193.00 53.20,193.00 C52.57,193.00 52.32,192.32 52.64,191.50 C52.95,190.68 52.73,190.00 52.14,190.00 C51.55,190.00 51.32,189.32 51.64,188.50 C51.95,187.68 51.83,187.00 51.36,187.00 C50.89,187.00 50.43,185.78 50.34,184.28 C50.26,182.78 49.72,181.41 49.15,181.22 C48.58,181.03 48.36,180.22 48.66,179.44 C48.97,178.65 48.73,178.00 48.14,178.00 C47.55,178.00 47.32,177.32 47.64,176.50 C47.95,175.68 47.76,175.00 47.20,175.00 C46.64,175.00 46.42,174.10 46.71,173.00 C47.00,171.90 46.77,171.00 46.21,171.00 C45.65,171.00 45.42,170.10 45.71,169.00 C46.00,167.90 45.77,167.00 45.21,167.00 C44.65,167.00 44.42,166.10 44.71,165.00 C45.00,163.90 44.80,163.00 44.26,163.00 C43.72,163.00 43.33,161.65 43.39,160.00 L 43.50 157.00 L 56.75 156.85 C64.04,156.77 70.53,156.65 71.19,156.60 C71.84,156.54 72.75,158.07 73.21,160.00 C76.82,175.02 84.76,195.31 91.67,207.20 C96.46,215.45 106.10,230.23 107.52,231.50 C108.13,232.05 110.47,234.75 112.71,237.50 C117.15,242.94 130.90,256.71 135.14,259.95 L 137.78 261.97 L 138.37 259.73 C138.70,258.51 138.98,230.84 138.99,198.26 L 139.00 139.02 L 90.25 138.76 L 41.50 138.50 L 41.20 133.75 C41.03,131.14 40.53,129.00 40.08,129.00 C39.63,129.00 39.49,125.85 39.77,122.00 C40.04,118.15 39.87,115.00 39.38,115.00 C38.89,115.00 38.50,103.45 38.50,89.11 L 38.50 63.21 L 41.75 63.74 C43.92,64.09 45.00,63.86 45.00,63.05 C45.00,62.23 45.96,62.05 48.00,62.50 C50.02,62.94 51.00,62.77 51.00,61.97 C51.00,61.20 51.88,61.01 53.50,61.41 C55.06,61.80 56.00,61.61 56.00,60.91 C56.00,60.21 56.94,60.02 58.50,60.41 C60.02,60.79 61.00,60.61 61.00,59.95 C61.00,59.32 61.84,59.13 63.00,59.50 C64.23,59.89 65.00,59.68 65.00,58.96 C65.00,58.20 65.90,58.01 67.50,58.41 C69.02,58.79 70.00,58.61 70.00,57.95 C70.00,57.32 70.84,57.13 72.00,57.50 C73.23,57.89 74.00,57.68 74.00,56.95 C74.00,56.26 74.83,55.98 76.00,56.29 C77.10,56.58 78.00,56.37 78.00,55.84 C78.00,55.30 78.90,55.15 80.00,55.50 C81.22,55.89 82.00,55.68 82.00,54.96 C82.00,54.31 82.68,54.05 83.50,54.36 C84.32,54.68 85.00,54.45 85.00,53.85 C85.00,53.26 85.90,53.00 87.00,53.29 C88.10,53.58 89.00,53.36 89.00,52.80 C89.00,52.24 89.68,52.05 90.50,52.36 C91.32,52.68 92.00,52.45 92.00,51.86 C92.00,51.27 92.68,51.05 93.50,51.36 C94.32,51.68 95.00,51.45 95.00,50.86 C95.00,50.27 95.68,50.05 96.50,50.36 C97.32,50.68 98.00,50.45 98.00,49.86 C98.00,49.27 98.68,49.05 99.50,49.36 C100.32,49.68 101.00,49.45 101.00,48.86 C101.00,48.27 101.68,48.05 102.50,48.36 C103.32,48.68 104.00,48.45 104.00,47.86 C104.00,47.27 104.68,47.05 105.50,47.36 C106.32,47.68 107.00,47.54 107.00,47.05 C107.00,46.20 113.38,43.55 115.50,43.52 C116.05,43.51 117.12,42.91 117.88,42.19 C118.64,41.47 119.87,41.12 120.63,41.41 C121.38,41.70 122.00,41.57 122.00,41.13 C122.00,39.98 126.97,37.86 128.07,38.55 C128.58,38.86 129.00,38.73 129.00,38.25 C129.00,37.48 138.00,32.98 145.25,30.12 C146.76,29.53 148.00,28.58 148.00,28.02 C148.00,27.46 148.80,27.00 149.78,27.00 C150.76,27.00 152.33,26.10 153.27,25.00 C154.21,23.90 155.66,23.00 156.49,23.00 C157.32,23.00 158.00,22.55 158.00,22.00 C158.00,21.45 158.68,21.00 159.50,21.00 C160.32,21.00 161.00,20.55 161.00,20.00 C161.00,19.45 161.68,19.00 162.50,19.00 C163.32,19.00 164.00,18.55 164.00,18.00 C164.00,17.45 164.64,17.00 165.42,17.00 C166.20,17.00 167.00,16.49 167.21,15.86 C167.78,14.16 175.17,13.97 177.71,15.59 C178.93,16.37 180.62,17.00 181.46,17.00 C182.31,17.00 183.00,17.48 183.00,18.06 C183.00,18.64 183.45,18.84 184.00,18.50 C184.55,18.16 185.00,18.39 185.00,19.00 C185.00,19.61 185.40,19.87 185.88,19.57 C186.37,19.27 187.88,19.91 189.25,20.98 C190.61,22.06 192.02,22.65 192.37,22.30 C192.71,21.95 193.00,22.24 193.00,22.94 C193.00,23.64 193.64,23.97 194.42,23.67 C196.67,22.81 197.00,25.17 197.00,42.02 C197.00,53.21 196.65,58.10 195.81,58.62 C195.15,59.02 194.45,58.85 194.24,58.23 C194.04,57.62 192.32,56.60 190.44,55.98 C188.55,55.36 187.00,54.43 187.00,53.92 C187.00,53.42 186.32,53.00 185.50,53.00 C184.68,53.00 184.00,52.56 184.00,52.02 C184.00,51.48 182.88,50.76 181.50,50.41 C180.12,50.07 179.00,49.38 179.00,48.89 C179.00,48.40 178.32,48.00 177.50,48.00 C176.68,48.00 176.00,47.60 176.00,47.12 C176.00,44.51 171.51,45.60 164.22,49.98 C138.89,65.21 106.44,77.54 73.22,84.55 L 64.94 86.30 L 65.50 112.50 L 116.75 112.76 L 168.00 113.02 ZM 195.50 297.52 C193.30,298.84 190.96,299.93 190.30,299.96 C189.43,299.99 189.02,295.76 188.80,284.50 C188.63,275.97 188.86,269.00 189.29,269.00 C189.73,269.00 191.05,268.10 192.23,267.00 C193.41,265.90 194.97,265.00 195.69,265.00 C196.41,265.00 197.00,264.55 197.00,264.00 C197.00,263.45 197.63,263.00 198.39,263.00 C199.16,263.00 200.05,262.33 200.36,261.50 C200.68,260.67 201.61,260.00 202.43,260.00 C203.26,260.00 204.41,259.10 205.00,258.00 C205.59,256.90 206.63,256.00 207.30,256.00 C208.66,256.00 224.50,240.34 224.50,239.01 C224.50,238.55 225.76,237.19 227.30,235.98 C228.84,234.76 229.88,233.54 229.60,233.26 C229.31,232.98 230.08,231.92 231.29,230.91 C232.51,229.90 233.06,229.05 232.53,229.03 C231.99,229.01 232.56,228.29 233.79,227.43 C235.03,226.57 235.80,225.49 235.52,225.04 C235.24,224.58 235.75,223.93 236.65,223.58 C237.55,223.24 238.03,222.70 237.73,222.39 C237.42,222.09 238.05,220.95 239.12,219.88 C240.19,218.81 240.80,217.49 240.48,216.96 C240.15,216.43 240.39,216.00 241.00,216.00 C241.61,216.00 241.87,215.60 241.56,215.10 C241.26,214.61 241.71,213.94 242.57,213.61 C243.43,213.28 243.85,212.56 243.50,212.01 C243.16,211.45 243.39,211.00 244.00,211.00 C244.61,211.00 244.84,210.55 244.50,210.00 C244.16,209.45 244.39,209.00 245.00,209.00 C245.61,209.00 245.84,208.55 245.50,208.00 C245.16,207.45 245.39,207.00 246.00,207.00 C246.61,207.00 246.84,206.55 246.50,206.00 C246.16,205.45 246.39,205.00 247.00,205.00 C247.61,205.00 247.84,204.55 247.50,204.00 C247.16,203.45 247.43,203.00 248.11,203.00 C248.78,203.00 249.05,202.72 248.71,202.38 C248.37,202.04 248.77,201.08 249.61,200.25 C250.44,199.42 250.88,198.13 250.59,197.37 C250.30,196.62 250.53,196.00 251.09,196.00 C251.66,196.00 251.84,195.55 251.50,195.00 C251.16,194.45 251.41,194.00 252.05,194.00 C252.69,194.00 252.95,193.32 252.64,192.50 C252.32,191.68 252.55,191.00 253.14,191.00 C253.73,191.00 253.95,190.32 253.64,189.50 C253.32,188.68 253.55,188.00 254.14,188.00 C254.73,188.00 254.95,187.32 254.64,186.50 C254.32,185.68 254.42,185.00 254.86,185.00 C255.31,185.00 255.67,184.32 255.67,183.50 C255.67,182.24 253.46,182.00 241.83,182.00 L 257.00 182.00 L 257.00 167.89 C257.00,179.64 257.24,181.88 258.58,182.39 C259.45,182.73 265.98,183.00 273.08,183.00 C280.19,183.00 286.00,183.41 286.00,183.90 C286.00,186.54 278.15,206.98 273.35,216.85 C268.30,227.23 259.08,242.01 252.98,249.50 C249.92,253.25 227.30,275.88 224.23,278.26 C216.22,284.46 206.66,291.22 203.36,293.02 C201.24,294.18 197.70,296.20 195.50,297.52 Z" fill="rgb(28,124,100)"/>
<path d="M 0.00 163.50 L 0.00 0.00 L 532.00 0.00 L 1064.00 0.00 L 1064.00 163.50 L 1064.00 327.00 L 532.00 327.00 L 0.00 327.00 L 0.00 163.50 ZM 168.00 211.51 L 168.00 113.02 L 116.75 112.76 L 65.50 112.50 L 65.22 99.40 L 64.94 86.30 L 73.22 84.55 C106.44,77.54 138.89,65.21 164.22,49.98 C171.51,45.60 176.00,44.51 176.00,47.12 C176.00,47.60 176.68,48.00 177.50,48.00 C178.32,48.00 179.00,48.40 179.00,48.89 C179.00,49.38 180.12,50.07 181.50,50.41 C182.88,50.76 184.00,51.48 184.00,52.02 C184.00,52.56 184.68,53.00 185.50,53.00 C186.32,53.00 187.00,53.42 187.00,53.92 C187.00,54.43 188.55,55.36 190.44,55.98 C192.32,56.60 194.04,57.62 194.24,58.23 C194.45,58.85 195.15,59.02 195.81,58.62 C196.65,58.10 197.00,53.21 197.00,42.02 C197.00,25.17 196.67,22.81 194.42,23.67 C193.64,23.97 193.00,23.64 193.00,22.94 C193.00,22.24 192.71,21.95 192.37,22.30 C192.02,22.65 190.61,22.06 189.25,20.98 C187.88,19.91 186.37,19.27 185.88,19.57 C185.40,19.87 185.00,19.61 185.00,19.00 C185.00,18.39 184.55,18.16 184.00,18.50 C183.45,18.84 183.00,18.64 183.00,18.06 C183.00,17.48 182.31,17.00 181.46,17.00 C180.62,17.00 178.93,16.37 177.71,15.59 C175.17,13.97 167.78,14.16 167.21,15.86 C167.00,16.49 166.20,17.00 165.42,17.00 C164.64,17.00 164.00,17.45 164.00,18.00 C164.00,18.55 163.32,19.00 162.50,19.00 C161.68,19.00 161.00,19.45 161.00,20.00 C161.00,20.55 160.32,21.00 159.50,21.00 C158.68,21.00 158.00,21.45 158.00,22.00 C158.00,22.55 157.32,23.00 156.49,23.00 C155.66,23.00 154.21,23.90 153.27,25.00 C152.33,26.10 150.76,27.00 149.78,27.00 C148.80,27.00 148.00,27.46 148.00,28.02 C148.00,28.58 146.76,29.53 145.25,30.12 C138.00,32.98 129.00,37.48 129.00,38.25 C129.00,38.73 128.58,38.86 128.07,38.55 C126.97,37.86 122.00,39.98 122.00,41.13 C122.00,41.57 121.38,41.70 120.63,41.41 C119.87,41.12 118.64,41.47 117.88,42.19 C117.12,42.91 116.05,43.51 115.50,43.52 C113.38,43.55 107.00,46.20 107.00,47.05 C107.00,47.54 106.32,47.68 105.50,47.36 C104.68,47.05 104.00,47.27 104.00,47.86 C104.00,48.45 103.32,48.68 102.50,48.36 C101.68,48.05 101.00,48.27 101.00,48.86 C101.00,49.45 100.32,49.68 99.50,49.36 C98.68,49.05 98.00,49.27 98.00,49.86 C98.00,50.45 97.32,50.68 96.50,50.36 C95.68,50.05 95.00,50.27 95.00,50.86 C95.00,51.45 94.32,51.68 93.50,51.36 C92.68,51.05 92.00,51.27 92.00,51.86 C92.00,52.45 91.32,52.68 90.50,52.36 C89.68,52.05 89.00,52.24 89.00,52.80 C89.00,53.36 88.10,53.58 87.00,53.29 C85.90,53.00 85.00,53.26 85.00,53.85 C85.00,54.45 84.32,54.68 83.50,54.36 C82.68,54.05 82.00,54.31 82.00,54.96 C82.00,55.68 81.22,55.89 80.00,55.50 C78.90,55.15 78.00,55.30 78.00,55.84 C78.00,56.37 77.10,56.58 76.00,56.29 C74.83,55.98 74.00,56.26 74.00,56.95 C74.00,57.68 73.23,57.89 72.00,57.50 C70.84,57.13 70.00,57.32 70.00,57.95 C70.00,58.61 69.02,58.79 67.50,58.41 C65.90,58.01 65.00,58.20 65.00,58.96 C65.00,59.68 64.23,59.89 63.00,59.50 C61.84,59.13 61.00,59.32 61.00,59.95 C61.00,60.61 60.02,60.79 58.50,60.41 C56.94,60.02 56.00,60.21 56.00,60.91 C56.00,61.61 55.06,61.80 53.50,61.41 C51.88,61.01 51.00,61.20 51.00,61.97 C51.00,62.77 50.02,62.94 48.00,62.50 C45.96,62.05 45.00,62.23 45.00,63.05 C45.00,63.86 43.92,64.09 41.75,63.74 L 38.50 63.21 L 38.50 89.11 C38.50,103.45 38.89,115.00 39.38,115.00 C39.87,115.00 40.04,118.15 39.77,122.00 C39.49,125.85 39.63,129.00 40.08,129.00 C40.53,129.00 41.03,131.14 41.20,133.75 L 41.50 138.50 L 90.25 138.76 L 139.00 139.02 L 138.99 198.26 C138.98,230.84 138.70,258.51 138.37,259.73 L 137.78 261.97 L 135.14 259.95 C130.90,256.71 117.15,242.94 112.71,237.50 C110.47,234.75 108.13,232.05 107.52,231.50 C106.10,230.23 96.46,215.45 91.67,207.20 C84.76,195.31 76.82,175.02 73.21,160.00 C72.75,158.07 71.84,156.54 71.19,156.60 C70.53,156.65 64.04,156.77 56.75,156.85 L 43.50 157.00 L 43.39 160.00 C43.33,161.65 43.72,163.00 44.26,163.00 C44.80,163.00 45.00,163.90 44.71,165.00 C44.42,166.10 44.65,167.00 45.21,167.00 C45.77,167.00 46.00,167.90 45.71,169.00 C45.42,170.10 45.65,171.00 46.21,171.00 C46.77,171.00 47.00,171.90 46.71,173.00 C46.42,174.10 46.64,175.00 47.20,175.00 C47.76,175.00 47.95,175.68 47.64,176.50 C47.32,177.32 47.55,178.00 48.14,178.00 C48.73,178.00 48.97,178.65 48.66,179.44 C48.36,180.22 48.58,181.03 49.15,181.22 C49.72,181.41 50.26,182.78 50.34,184.28 C50.43,185.78 50.89,187.00 51.36,187.00 C51.83,187.00 51.95,187.68 51.64,188.50 C51.32,189.32 51.55,190.00 52.14,190.00 C52.73,190.00 52.95,190.68 52.64,191.50 C52.32,192.32 52.57,193.00 53.20,193.00 C53.82,193.00 54.05,193.28 53.71,193.62 C53.37,193.96 53.77,194.92 54.61,195.75 C55.44,196.58 55.88,197.87 55.59,198.63 C55.30,199.38 55.45,200.00 55.92,200.00 C56.92,200.00 60.47,207.89 60.32,209.75 C60.27,210.44 60.65,211.00 61.17,211.00 C61.69,211.00 61.84,211.45 61.50,212.00 C61.16,212.55 61.43,213.00 62.11,213.00 C62.78,213.00 63.07,213.26 62.75,213.58 C62.43,213.90 63.05,215.05 64.12,216.12 C65.19,217.19 65.80,218.51 65.48,219.04 C65.15,219.57 65.39,220.00 66.00,220.00 C66.61,220.00 66.84,220.45 66.50,221.00 C66.16,221.55 66.43,222.00 67.11,222.00 C67.78,222.00 68.07,222.26 67.75,222.58 C67.43,222.90 68.05,224.05 69.12,225.12 C70.19,226.19 70.83,227.46 70.54,227.93 C70.25,228.40 70.75,229.07 71.65,229.42 C72.55,229.76 73.04,230.29 72.75,230.59 C72.45,230.88 73.28,232.28 74.59,233.69 C75.89,235.10 76.75,236.60 76.49,237.02 C76.23,237.44 76.75,238.07 77.65,238.42 C78.55,238.76 79.00,239.33 78.65,239.68 C78.30,240.03 78.92,240.95 80.02,241.73 C81.13,242.50 81.80,243.51 81.53,243.96 C81.25,244.41 82.14,245.51 83.50,246.41 C84.87,247.31 85.88,248.41 85.74,248.86 C85.61,249.31 86.95,250.91 88.73,252.41 C90.50,253.91 91.89,255.45 91.82,255.82 C91.63,256.78 107.78,273.00 108.92,273.00 C109.43,273.00 110.74,274.12 111.82,275.50 C112.90,276.88 114.28,278.00 114.87,278.00 C115.47,278.00 116.69,279.12 117.59,280.50 C118.49,281.88 119.85,283.00 120.62,283.00 C121.38,283.00 122.00,283.45 122.00,284.00 C122.00,284.55 122.69,285.00 123.53,285.00 C124.37,285.00 125.32,285.67 125.64,286.50 C125.95,287.33 126.84,288.00 127.61,288.00 C128.37,288.00 129.00,288.45 129.00,289.00 C129.00,289.55 129.68,290.00 130.50,290.00 C131.32,290.00 132.00,290.45 132.00,291.00 C132.00,291.55 132.68,292.00 133.50,292.00 C134.32,292.00 135.00,292.45 135.00,293.00 C135.00,293.55 135.68,294.00 136.50,294.00 C137.32,294.00 138.00,294.45 138.00,295.00 C138.00,295.55 138.68,296.00 139.50,296.00 C140.32,296.00 141.00,296.42 141.00,296.92 C141.00,297.43 142.57,298.36 144.50,299.00 C146.43,299.64 148.00,300.51 148.00,300.95 C148.00,301.85 164.28,309.41 167.25,309.88 C167.66,309.95 168.00,265.68 168.00,211.51 ZM 195.50 297.52 C197.70,296.20 201.24,294.18 203.36,293.02 C206.66,291.22 216.22,284.46 224.23,278.26 C227.30,275.88 249.92,253.25 252.98,249.50 C259.08,242.01 268.30,227.23 273.35,216.85 C278.15,206.98 286.00,186.54 286.00,183.90 C286.00,183.41 280.19,183.00 273.08,183.00 C265.98,183.00 259.45,182.73 258.58,182.39 C257.24,181.88 257.00,179.64 257.00,167.89 L 257.00 154.00 L 242.50 154.00 L 228.00 154.00 L 228.00 168.00 L 228.00 182.00 L 212.50 182.00 L 197.00 182.00 L 197.00 196.50 L 197.00 211.00 L 212.56 211.00 L 228.12 211.00 L 227.84 204.75 C227.69,201.31 227.66,194.79 227.78,190.25 L 228.00 182.00 L 241.83 182.00 C253.46,182.00 255.67,182.24 255.67,183.50 C255.67,184.32 255.31,185.00 254.86,185.00 C254.42,185.00 254.32,185.68 254.64,186.50 C254.95,187.32 254.73,188.00 254.14,188.00 C253.55,188.00 253.32,188.68 253.64,189.50 C253.95,190.32 253.73,191.00 253.14,191.00 C252.55,191.00 252.32,191.68 252.64,192.50 C252.95,193.32 252.69,194.00 252.05,194.00 C251.41,194.00 251.16,194.45 251.50,195.00 C251.84,195.55 251.66,196.00 251.09,196.00 C250.53,196.00 250.30,196.62 250.59,197.37 C250.88,198.13 250.44,199.42 249.61,200.25 C248.77,201.08 248.37,202.04 248.71,202.38 C249.05,202.72 248.78,203.00 248.11,203.00 C247.43,203.00 247.16,203.45 247.50,204.00 C247.84,204.55 247.61,205.00 247.00,205.00 C246.39,205.00 246.16,205.45 246.50,206.00 C246.84,206.55 246.61,207.00 246.00,207.00 C245.39,207.00 245.16,207.45 245.50,208.00 C245.84,208.55 245.61,209.00 245.00,209.00 C244.39,209.00 244.16,209.45 244.50,210.00 C244.84,210.55 244.61,211.00 244.00,211.00 C243.39,211.00 243.16,211.45 243.50,212.01 C243.85,212.56 243.43,213.28 242.57,213.61 C241.71,213.94 241.26,214.61 241.56,215.10 C241.87,215.60 241.61,216.00 241.00,216.00 C240.39,216.00 240.15,216.43 240.48,216.96 C240.80,217.49 240.19,218.81 239.12,219.88 C238.05,220.95 237.42,222.09 237.73,222.39 C238.03,222.70 237.55,223.24 236.65,223.58 C235.75,223.93 235.24,224.58 235.52,225.04 C235.80,225.49 235.03,226.57 233.79,227.43 C232.56,228.29 231.99,229.01 232.53,229.03 C233.06,229.05 232.51,229.90 231.29,230.91 C230.08,231.92 229.31,232.98 229.60,233.26 C229.88,233.54 228.84,234.76 227.30,235.98 C225.76,237.19 224.50,238.55 224.50,239.01 C224.50,240.34 208.66,256.00 207.30,256.00 C206.63,256.00 205.59,256.90 205.00,258.00 C204.41,259.10 203.26,260.00 202.43,260.00 C201.61,260.00 200.68,260.67 200.36,261.50 C200.05,262.33 199.16,263.00 198.39,263.00 C197.63,263.00 197.00,263.45 197.00,264.00 C197.00,264.55 196.41,265.00 195.69,265.00 C194.97,265.00 193.41,265.90 192.23,267.00 C191.05,268.10 189.73,269.00 189.29,269.00 C188.86,269.00 188.63,275.97 188.80,284.50 C189.02,295.76 189.43,299.99 190.30,299.96 C190.96,299.93 193.30,298.84 195.50,297.52 ZM 988.50 238.71 C1012.38,233.23 1025.93,221.89 1029.94,204.00 C1031.30,197.93 1031.25,189.37 1029.81,184.50 C1029.16,182.30 1028.57,180.27 1028.49,180.00 C1027.31,175.63 1020.54,166.00 1018.66,166.00 C1018.01,166.00 1016.26,164.87 1014.76,163.48 C1013.26,162.09 1011.69,160.91 1011.27,160.84 C1009.28,160.55 1006.00,158.57 1006.00,157.67 C1006.00,157.12 1005.75,156.92 1005.44,157.23 C1005.13,157.54 1001.04,156.49 996.36,154.90 C991.68,153.30 986.98,152.00 985.92,152.00 C984.86,152.00 984.00,151.50 984.00,150.89 C984.00,150.28 983.34,150.04 982.54,150.34 C980.70,151.05 958.72,146.87 957.86,145.65 C957.51,145.15 956.77,145.02 956.22,145.36 C955.16,146.02 943.85,144.07 943.00,143.08 C942.72,142.76 940.99,142.45 939.14,142.39 C937.30,142.33 935.44,141.71 935.01,141.01 C934.58,140.31 933.72,140.05 933.11,140.43 C932.50,140.81 932.00,140.59 932.00,139.95 C932.00,139.31 931.33,139.05 930.50,139.36 C929.67,139.68 929.00,139.47 929.00,138.91 C929.00,138.34 928.66,138.09 928.25,138.35 C927.84,138.60 926.21,137.78 924.64,136.53 C922.47,134.80 921.66,133.15 921.27,129.69 C920.52,123.04 921.47,120.61 926.03,117.60 C935.18,111.54 951.36,109.73 972.00,112.45 C985.52,114.23 994.26,116.65 1008.18,122.46 C1009.37,122.95 1010.37,122.34 1011.65,120.33 C1012.64,118.77 1013.69,117.28 1013.99,117.00 C1014.28,116.72 1015.40,114.81 1016.49,112.75 C1017.57,110.69 1018.80,109.00 1019.23,109.00 C1019.65,109.00 1020.00,108.38 1020.00,107.62 C1020.00,106.86 1020.67,105.68 1021.50,105.00 C1022.33,104.32 1023.00,103.14 1023.00,102.38 C1023.00,100.70 1019.40,96.93 1018.58,97.75 C1018.26,98.07 1018.00,97.78 1018.00,97.11 C1018.00,96.43 1017.55,96.16 1017.00,96.50 C1016.45,96.84 1016.00,96.61 1016.00,96.00 C1016.00,95.39 1015.55,95.16 1015.00,95.50 C1014.45,95.84 1014.00,95.64 1014.00,95.06 C1014.00,94.48 1013.66,94.10 1013.25,94.22 C1012.84,94.34 1008.54,92.99 1003.70,91.22 C998.86,89.45 994.02,88.00 992.95,88.00 C991.88,88.00 991.00,87.61 991.00,87.14 C991.00,86.67 989.76,86.30 988.25,86.32 C986.74,86.34 981.00,85.84 975.50,85.21 C960.48,83.49 945.75,83.60 934.50,85.52 C929.00,86.46 923.72,87.21 922.77,87.18 C921.82,87.15 920.78,87.55 920.46,88.06 C920.14,88.58 918.82,89.00 917.52,89.00 C916.23,89.00 915.02,89.34 914.83,89.75 C914.65,90.16 912.92,91.27 911.00,92.21 C903.71,95.76 894.00,103.71 894.00,106.12 C894.00,106.60 893.55,107.00 893.00,107.00 C892.45,107.00 892.10,107.34 892.21,107.75 C892.33,108.16 891.79,109.62 891.01,111.00 C889.40,113.84 889.55,113.28 888.07,122.25 C887.25,127.23 887.26,130.77 888.09,135.75 C888.72,139.46 889.25,143.06 889.28,143.75 C889.31,144.44 889.73,145.00 890.23,145.00 C890.72,145.00 890.84,145.45 890.50,146.00 C890.16,146.55 890.43,147.00 891.11,147.00 C891.78,147.00 892.07,147.26 891.75,147.58 C891.43,147.90 891.92,148.95 892.83,149.91 C893.75,150.86 895.69,152.96 897.14,154.57 C898.60,156.18 900.85,158.33 902.14,159.33 C905.04,161.59 915.11,166.36 920.50,168.04 C922.70,168.72 925.40,169.65 926.50,170.11 C927.60,170.57 937.28,172.57 948.00,174.55 C958.72,176.53 970.88,178.79 975.00,179.58 C987.61,181.98 996.62,187.88 997.68,194.44 C998.01,196.46 997.78,198.57 997.14,199.33 C996.52,200.08 996.25,200.92 996.54,201.20 C997.81,202.48 988.65,209.05 983.29,210.71 C974.54,213.41 952.92,213.09 938.75,210.05 C932.84,208.78 928.00,207.30 928.00,206.76 C928.00,206.23 927.31,206.05 926.47,206.37 C925.08,206.91 917.19,204.42 916.00,203.07 C915.72,202.76 914.83,202.36 914.00,202.18 C911.27,201.60 904.00,197.66 904.00,196.76 C904.00,196.28 903.55,196.16 903.00,196.50 C902.45,196.84 902.00,196.64 902.00,196.06 C902.00,193.55 896.95,196.38 896.27,199.27 C895.85,201.05 892.51,206.00 891.73,206.00 C891.26,206.00 891.16,206.45 891.50,207.01 C891.85,207.56 891.43,208.28 890.57,208.61 C889.71,208.94 889.24,209.58 889.53,210.04 C889.81,210.50 889.25,211.34 888.27,211.91 C887.30,212.48 886.85,212.95 887.27,212.97 C887.70,212.99 887.36,214.04 886.53,215.31 C885.10,217.49 885.20,217.80 888.26,220.73 C891.41,223.75 907.26,232.11 912.09,233.30 C913.42,233.62 916.84,234.56 919.70,235.38 C922.56,236.19 926.61,237.12 928.70,237.45 C930.79,237.77 934.97,238.48 938.00,239.01 C947.39,240.69 950.03,240.82 966.50,240.45 C975.30,240.24 985.20,239.46 988.50,238.71 ZM 455.07 237.96 C456.95,236.96 457.00,235.22 457.00,176.46 L 457.00 116.00 L 482.00 116.00 L 507.00 116.00 L 507.00 101.00 L 507.00 86.00 L 441.64 86.00 L 376.27 86.00 L 375.80 95.25 C375.54,100.34 375.59,106.75 375.91,109.50 L 376.50 114.50 L 400.75 114.77 L 425.00 115.04 L 425.00 175.97 C425.00,232.94 425.11,236.97 426.75,237.92 C429.05,239.26 452.58,239.30 455.07,237.96 ZM 606.01 236.99 C607.01,235.99 608.35,232.62 609.00,229.49 C610.06,224.41 611.22,220.89 613.94,214.50 C614.41,213.40 615.58,209.35 616.55,205.50 C617.51,201.65 618.76,197.38 619.32,196.00 C619.88,194.62 620.90,191.70 621.59,189.50 C622.27,187.30 623.51,183.48 624.33,181.00 C625.16,178.52 626.74,173.35 627.85,169.50 C629.95,162.21 636.06,142.00 638.68,133.70 C640.07,129.28 642.43,127.68 642.55,131.09 C642.57,131.86 643.15,133.52 643.84,134.77 C644.53,136.02 644.84,137.44 644.54,137.94 C644.24,138.43 644.43,138.98 644.96,139.16 C645.50,139.35 646.15,140.62 646.40,142.00 C646.65,143.38 646.88,144.61 646.93,144.75 C646.97,144.89 646.96,145.29 646.91,145.64 C646.87,145.99 647.23,146.55 647.71,146.89 C649.06,147.82 653.08,159.06 652.44,160.09 C652.13,160.59 652.32,161.00 652.86,161.00 C653.79,161.00 655.60,166.64 655.19,168.25 C655.09,168.66 655.50,169.00 656.11,169.00 C656.72,169.00 656.97,169.65 656.66,170.44 C656.36,171.22 656.56,172.02 657.10,172.20 C657.64,172.38 658.16,173.54 658.26,174.76 C658.35,175.99 658.83,177.00 659.32,177.00 C659.81,177.00 659.95,177.68 659.64,178.50 C659.32,179.32 659.55,180.00 660.14,180.00 C660.73,180.00 660.97,180.65 660.66,181.44 C660.36,182.22 660.44,183.01 660.84,183.19 C661.48,183.46 675.57,221.64 678.96,232.26 C681.06,238.84 681.51,239.00 697.74,239.00 C713.32,239.00 716.00,238.23 716.00,233.75 C716.00,232.68 716.62,230.38 717.37,228.65 C718.66,225.68 722.16,214.15 729.10,190.00 C730.76,184.23 732.54,179.07 733.06,178.55 C733.58,178.03 734.00,176.62 734.00,175.41 C734.00,174.21 734.67,171.94 735.49,170.36 C736.32,168.79 736.99,166.63 736.99,165.57 C737.00,164.50 737.85,161.13 738.88,158.07 C739.91,155.00 741.54,149.46 742.49,145.74 C743.45,142.02 744.63,138.73 745.11,138.43 C745.60,138.13 746.00,136.67 746.01,135.19 C746.01,133.71 746.64,131.30 747.41,129.83 C748.17,128.36 749.31,124.76 749.93,121.83 C751.09,116.33 756.38,99.04 757.98,95.50 C758.48,94.40 759.17,92.04 759.52,90.25 L 760.16 87.00 L 746.16 87.00 C738.46,87.00 731.38,86.70 730.42,86.33 C729.29,85.90 728.91,86.04 729.34,86.75 C729.71,87.34 729.49,89.11 728.85,90.67 C728.20,92.22 727.77,94.06 727.88,94.75 C728.00,95.44 727.73,96.00 727.29,96.00 C726.86,96.00 726.40,97.43 726.28,99.18 C726.15,100.92 725.70,102.61 725.28,102.92 C724.85,103.24 724.35,104.84 724.17,106.49 C724.00,108.13 723.55,109.71 723.17,109.99 C722.80,110.27 722.36,111.85 722.18,113.50 C722.00,115.15 721.47,116.64 720.99,116.81 C720.51,116.99 720.36,117.78 720.66,118.56 C720.97,119.35 720.69,120.00 720.05,120.00 C719.41,120.00 719.12,120.38 719.41,120.85 C720.08,121.93 716.90,133.39 715.80,133.84 C715.35,134.02 715.22,134.54 715.50,135.00 C715.78,135.46 715.49,137.11 714.85,138.67 C714.20,140.22 713.77,142.06 713.88,142.75 C714.00,143.44 713.59,144.00 712.98,144.00 C712.38,144.00 712.16,144.45 712.50,145.00 C712.84,145.55 712.77,146.56 712.34,147.25 C711.91,147.94 711.52,148.95 711.48,149.50 C711.22,152.90 709.63,158.00 708.83,158.00 C708.31,158.00 708.11,158.38 708.40,158.84 C708.86,159.58 706.13,169.88 704.40,173.94 C704.04,174.80 703.56,176.85 703.35,178.50 C703.14,180.15 702.52,181.65 701.98,181.84 C701.43,182.02 701.20,182.51 701.46,182.93 C702.34,184.36 698.35,196.50 696.99,196.50 C695.78,196.50 694.01,192.11 689.35,177.50 C688.47,174.75 687.19,171.15 686.51,169.50 C684.98,165.81 681.13,155.02 677.77,145.00 C674.46,135.11 672.92,130.87 671.87,128.76 C671.39,127.81 671.00,126.34 671.00,125.50 C671.00,124.66 670.58,123.19 670.07,122.24 C668.14,118.64 658.00,89.80 658.00,87.92 C658.00,86.74 655.28,86.55 641.90,86.80 C626.90,87.08 625.75,87.23 625.28,89.05 C625.00,90.12 624.34,91.00 623.82,91.00 C623.31,91.00 623.12,91.38 623.41,91.85 C624.01,92.82 610.31,137.02 609.00,138.37 C608.54,138.85 608.39,139.86 608.69,140.62 C608.98,141.38 608.73,142.00 608.14,142.00 C607.55,142.00 607.32,142.68 607.64,143.50 C607.95,144.32 607.69,145.00 607.05,145.00 C606.41,145.00 606.13,145.40 606.43,145.89 C606.91,146.67 605.34,152.29 603.33,157.00 C602.97,157.82 602.78,159.06 602.89,159.75 C603.00,160.44 602.73,161.00 602.29,161.00 C601.86,161.00 601.43,162.01 601.35,163.25 C601.26,164.49 600.64,166.85 599.96,168.50 C599.28,170.15 598.60,172.40 598.45,173.50 C598.29,174.60 597.61,176.85 596.93,178.50 C596.25,180.15 595.61,181.95 595.51,182.50 C594.86,186.22 593.65,190.00 593.12,190.00 C592.78,190.00 592.40,191.43 592.28,193.18 C592.02,196.80 590.47,198.90 589.11,197.45 C588.61,196.93 586.30,190.65 583.97,183.50 C581.64,176.35 579.12,169.08 578.36,167.35 C577.61,165.62 577.00,163.55 577.00,162.76 C577.00,161.15 573.56,150.63 572.01,147.50 C571.47,146.40 569.19,139.88 566.96,133.00 C564.72,126.12 562.50,119.60 562.02,118.50 C561.55,117.40 560.86,115.15 560.50,113.50 C560.14,111.85 559.19,109.11 558.38,107.40 C557.58,105.70 555.69,100.52 554.20,95.90 L 551.48 87.50 L 535.10 87.22 C520.57,86.98 518.85,87.12 519.97,88.46 C520.66,89.29 520.96,90.66 520.64,91.49 C520.32,92.32 520.55,93.00 521.14,93.00 C521.73,93.00 521.95,93.68 521.64,94.50 C521.32,95.32 521.43,96.00 521.87,96.00 C522.63,96.00 525.38,103.27 525.46,105.50 C525.48,106.05 525.75,106.72 526.07,107.00 C526.78,107.63 533.50,126.16 533.50,127.50 C533.50,128.05 533.76,128.73 534.07,129.00 C534.76,129.60 543.00,152.03 543.50,154.66 C543.69,155.67 543.88,156.61 543.92,156.75 C543.97,156.89 543.96,157.29 543.91,157.64 C543.87,157.99 544.25,158.55 544.77,158.89 C546.07,159.74 553.02,179.65 552.27,180.39 C551.94,180.73 552.16,181.00 552.75,181.00 C553.72,181.00 555.40,185.96 554.99,187.62 C554.90,187.98 555.25,188.55 555.77,188.89 C556.69,189.49 560.46,199.56 560.49,201.50 C560.49,202.05 560.76,202.73 561.09,203.00 C562.29,204.03 567.98,220.22 567.44,221.09 C567.13,221.59 567.41,222.00 568.05,222.00 C568.69,222.00 568.95,222.68 568.64,223.50 C568.32,224.32 568.45,225.00 568.92,225.00 C569.40,225.00 570.06,226.08 570.39,227.41 C570.72,228.73 571.89,231.90 572.98,234.45 L 574.96 239.08 L 589.58 238.94 C602.24,238.82 604.44,238.56 606.01,236.99 ZM 805.76 162.75 L 806.01 87.00 L 790.51 87.00 L 775.00 87.00 L 775.00 162.33 C775.00,203.77 775.31,237.98 775.69,238.36 C776.07,238.74 782.94,238.93 790.94,238.78 L 805.50 238.50 L 805.76 162.75 ZM 860.75 237.75 C861.39,236.94 861.70,210.15 861.62,162.00 L 861.50 87.50 L 846.25 87.22 L 831.00 86.95 L 831.00 162.31 C831.00,203.75 831.30,237.97 831.67,238.33 C832.96,239.62 859.68,239.09 860.75,237.75 ZM 291.00 138.50 L 291.00 124.00 L 277.50 124.00 L 264.00 124.00 L 264.00 138.50 L 264.00 153.00 L 277.50 153.00 L 291.00 153.00 L 291.00 138.50 ZM 226.00 127.97 L 226.00 111.95 L 211.34 112.22 L 196.67 112.50 L 196.91 125.99 C197.04,133.41 197.29,139.62 197.46,139.79 C197.63,139.96 203.78,140.93 211.13,141.94 C218.48,142.96 224.84,143.84 225.25,143.89 C225.66,143.95 226.00,136.79 226.00,127.97 ZM 290.52 104.43 C292.60,103.56 294.90,102.24 295.64,101.50 C296.38,100.76 298.00,99.33 299.24,98.32 C303.76,94.65 304.07,93.99 306.17,83.54 C307.22,78.32 306.53,70.45 304.94,69.46 C304.42,69.14 304.00,68.06 304.00,67.04 C304.00,64.80 293.77,55.57 292.58,56.75 C292.26,57.07 292.00,56.88 292.00,56.33 C292.00,55.78 291.44,55.31 290.75,55.28 C290.06,55.25 286.80,54.77 283.50,54.22 C279.92,53.62 276.82,53.57 275.82,54.11 C274.89,54.60 273.01,55.00 271.64,55.00 C270.27,55.00 268.47,55.67 267.64,56.50 C266.82,57.33 265.82,58.00 265.44,58.00 C264.72,58.00 259.63,63.09 259.44,64.00 C259.38,64.28 258.84,65.68 258.24,67.13 C256.04,72.41 255.00,77.84 255.25,82.85 C255.39,85.68 255.89,87.99 256.36,87.99 C256.83,88.00 256.95,88.68 256.64,89.50 C256.32,90.32 256.53,91.00 257.09,91.00 C257.66,91.00 257.84,91.45 257.50,92.00 C257.16,92.55 257.36,93.00 257.94,93.00 C258.52,93.00 259.00,93.40 259.00,93.90 C259.00,95.06 265.09,101.07 268.15,102.93 C273.28,106.06 284.78,106.83 290.52,104.43 ZM 242.00 60.45 L 242.00 46.91 L 238.50 47.57 C236.09,48.02 235.00,47.85 235.00,47.03 C235.00,46.27 234.02,46.04 232.25,46.40 C230.74,46.70 226.46,46.36 222.75,45.63 L 216.00 44.31 L 216.00 56.91 L 216.00 69.50 L 228.25 71.60 C234.99,72.75 240.84,73.76 241.25,73.85 C241.66,73.93 242.00,67.90 242.00,60.45 Z" fill="rgb(254,254,254)"/>
</g>
</svg>